<svg version="1.1" id="Layer_1" xmlns="http://www.w3.org/2000/svg" xmlns:xlink="http://www.w3.org/1999/xlink" x="0px" y="0px"
  width="100%" viewBox="0 0 317 306" enable-background="new 0 0 317 306" xml:space="preserve">

<path fill="#010101" opacity="1.000000" stroke="none" 
 d="
M187.353546,282.039825 
 C178.102280,278.586334 174.046692,272.126801 174.052811,262.718750 
 C174.097595,193.767899 174.309219,124.815552 173.884445,55.867268 
 C173.795837,41.484001 188.907410,30.410187 202.760056,38.811928 
 C225.053833,52.333302 247.865173,65.002831 270.491913,77.972824 
 C277.676300,82.091011 280.896881,88.086029 280.878235,96.423706 
 C280.754425,151.717346 280.812195,207.011414 280.803101,262.305328 
 C280.800903,275.755371 273.648529,282.817169 260.123962,282.809265 
 C238.306168,282.796539 216.488342,282.825012 194.670654,282.776917 
 C192.361343,282.771820 190.052887,282.371185 187.353546,282.039825 
z"/>
<path fill="#040404" opacity="1.000000" stroke="none" 
 d="
M69.902435,70.000275 
 C69.903549,134.807999 69.906128,199.115799 69.904366,263.423584 
 C69.904060,274.590729 62.606331,282.448395 52.037750,282.684875 
 C41.884243,282.912079 34.210720,275.381134 33.524063,264.485992 
 C33.419380,262.825012 33.390404,261.156860 33.390251,259.492004 
 C33.383961,192.185394 33.401081,124.878792 33.362083,57.572212 
 C33.357853,50.270485 34.684330,43.728027 41.088203,39.091747 
 C46.742619,34.998055 52.851719,34.296673 59.015427,37.010704 
 C65.551979,39.888905 69.549080,45.121563 69.837776,52.508961C70.058815,58.164963 69.895050,63.835995 69.902435,70.000275 
 z"/>
 <path fill="#010101" opacity="1.000000" stroke="none" 
  d="
 M103.746422,83.999878 
  C103.781723,73.338562 103.595566,63.170162 103.920471,53.018116 
  C104.194138,44.467506 110.280807,37.544415 118.147385,36.001698 
  C126.988289,34.267906 135.013138,38.156044 138.663193,46.309555 
  C139.644455,48.501526 140.041016,51.130787 140.043320,53.559940 
  C140.109863,124.026505 140.115326,194.493164 140.060898,264.959747 
  C140.053452,274.597137 133.000595,281.829803 123.287895,282.612671 
  C114.149574,283.349243 105.859756,277.035400 104.274918,267.876038 
  C103.768127,264.947113 103.767990,261.906982 103.766594,258.917633 
  C103.739418,200.778381 103.746422,142.639130 103.746422,83.999878 
 z"/>
 </svg>