<svg version="1.1" id="Layer_1" xmlns="http://www.w3.org/2000/svg" xmlns:xlink="http://www.w3.org/1999/xlink" x="0px" y="0px"
	 width="100%" viewBox="0 0 736 736" enable-background="new 0 0 736 736" xml:space="preserve">
<path fill="#000000" opacity="1.000000" stroke="none" 
	d="
M593.988586,623.010864 
	C568.527222,597.544006 543.259949,572.382629 518.177307,547.038391 
	C515.095459,543.924377 513.041626,543.647217 509.556030,546.343628 
	C485.486450,564.963501 458.834839,578.795532 429.947052,588.268005 
	C411.251984,594.398254 392.106567,598.498962 372.488007,600.404358 
	C352.872925,602.309265 333.233917,602.508789 313.703613,600.169006 
	C275.932251,595.643860 240.392929,584.176758 207.474380,564.808655 
	C165.286835,539.987000 131.967819,506.362976 108.123528,463.727783 
	C91.071899,433.238281 80.527596,400.485291 76.510445,365.569641 
	C70.161995,310.391144 80.613823,258.530426 106.615822,209.818863 
	C121.801460,181.370392 141.999908,156.716187 166.457840,135.511261 
	C194.296951,111.374878 225.703568,93.673714 260.638245,82.293686 
	C285.430481,74.217575 310.906219,70.229134 337.070129,69.496719 
	C383.138031,68.207146 426.708405,77.657608 467.741821,98.347794 
	C515.577026,122.467606 552.846375,158.023575 579.749146,204.333817 
	C597.350769,234.633118 608.319702,267.195526 612.456116,302.059967 
	C615.311340,326.126617 615.182861,350.036377 611.618225,374.087769 
	C604.877380,419.569580 587.716248,460.468079 559.484436,496.688385 
	C556.366821,500.688141 556.564514,502.969330 560.161316,506.544098 
	C599.161621,545.305054 637.961792,584.267151 676.872498,623.118530 
	C683.720398,629.955933 688.708252,637.559448 688.296387,647.670532 
	C687.793945,660.004089 681.811035,668.967651 670.590210,673.816956 
	C659.311951,678.690979 648.473877,676.914307 639.609497,668.371582 
	C624.255005,653.574219 609.338867,638.322021 593.988586,623.010864 
M213.696274,172.201385 
	C196.790024,185.669464 181.721161,200.867691 169.598190,218.862732 
	C137.757217,266.126678 126.063042,318.008606 136.936951,373.881073 
	C148.160645,431.550903 179.023514,476.992371 228.490448,509.008606 
	C277.003967,540.407837 330.230225,550.368713 386.705994,539.171387 
	C438.432190,528.915649 481.185699,502.814545 513.370789,460.630859 
	C548.046143,415.183441 561.960754,363.789154 554.374573,307.153687 
	C548.592529,263.987579 530.282837,226.218933 500.277863,194.656693 
	C464.962830,157.508865 421.797852,135.289902 370.612366,129.132629 
	C347.265106,126.324112 324.167145,127.414833 301.125427,131.953873 
	C268.959473,138.290298 240.348816,152.251328 213.696274,172.201385 
z"/>
<path fill="#000000" opacity="1.000000" stroke="none" 
	d="
M185.133820,403.702728 
	C173.780090,378.246063 168.852463,351.839996 170.900742,324.537231 
	C174.546143,275.945435 195.547440,235.992157 233.025665,204.776917 
	C257.145203,184.688004 284.951233,172.397171 315.711029,167.178543 
	C333.282318,164.197449 351.039948,163.921143 368.900574,166.400131 
	C419.040771,173.359467 459.212128,196.934784 489.095978,237.687485 
	C506.264038,261.099609 516.437927,287.419464 519.419556,316.403870 
	C524.903748,369.716034 508.985718,415.835602 471.610718,454.012421 
	C443.705261,482.516510 409.523834,499.363892 369.742432,504.431396 
	C313.590637,511.584198 264.700073,495.776520 223.217209,457.518646 
	C206.893036,442.463593 194.399094,424.380676 185.133820,403.702728 
z"/>
</svg>